# xmcd
#
# Track frame offsets:
#	150
#	14142
#	27234
#	42336
#	57728
#	72904
#	90833
#	103783
#	119230
#	133194
#
# Disc length: 1952 seconds
#
# Revision: 1
# Processed by: cddbd v1.5.1PL2 Copyright (c) Steve Scherf et al.
# Submitted via: EasyCDDAExtractor 6.5.9.5
#
DISCID=95079e0a
DTITLE=Ronnie Milsap - 20/20 Vision
DYEAR=1976
DGENRE=Country
TTITLE0=20/20 Vision
TTITLE1=Lovers, Friends and Strangers
TTITLE2=Not That I Care
TTITLE3=Lovesick Blues
TTITLE4=You Snap Your Fingers
TTITLE5=Looking Out My Window Through the Pain
TTITLE6=What Goes On When The Sun Goes Down
TTITLE7=You've Still Got A Place In My Heart
TTITLE8=I Got Home Just In Time To Say Goodbye
TTITLE9=I'm A Stand By My Woman Man
EXTD=
EXTT0=
EXTT1=
EXTT2=
EXTT3=
EXTT4=
EXTT5=
EXTT6=
EXTT7=
EXTT8=
EXTT9=
PLAYORDER=
